<svg xmlns="http://www.w3.org/2000/svg" version="1.1" xmlns:xlink="http://www.w3.org/1999/xlink" xmlns:svgjs="http://svgjs.dev/svgjs" width="1000" height="1000" viewBox="0 0 1000 1000"><rect width="1000" height="1000" fill="#000000"></rect><g transform="matrix(0.7,0,0,0.7,149.57575878320517,412.03967050084213)"><svg viewBox="0 0 396 100" data-background-color="#ffffff" preserveAspectRatio="xMidYMid meet" height="252" width="1000" xmlns="http://www.w3.org/2000/svg" xmlns:xlink="http://www.w3.org/1999/xlink"><g id="tight-bounds" transform="matrix(1,0,0,1,0.23999931692964083,-0.1358676308628901)"><svg viewBox="0 0 395.52 100.27173526172577" height="100.27173526172577" width="395.52"><g><svg viewBox="0 0 585.1845098192384 148.35524435643566" height="100.27173526172577" width="395.52"><g transform="matrix(1,0,0,1,189.66450981923848,45.84392386721026)"><svg viewBox="0 0 395.52 56.66739662201515" height="56.66739662201515" width="395.52"><g><svg viewBox="0 0 395.52 56.66739662201515" height="56.66739662201515" width="395.52"><g><svg viewBox="0 0 395.52 56.66739662201515" height="56.66739662201515" width="395.52"><g transform="matrix(1,0,0,1,0,0)"><svg width="395.52" viewBox="3.8499999046325684 -36.45000076293945 257.5299987792969 36.900001525878906" height="56.66739662201515" data-palette-color="#ca3433"><path d="M5.1-6.55L5.1-6.55 5.1-32.75Q5.1-34.15 3.85-34.7L3.85-34.7Q4.85-36.25 6.5-36.25L6.5-36.25Q9.3-36.25 9.3-32.8L9.3-32.8 9.3-6.65Q9.3-4.85 10.13-4.05 10.95-3.25 12.85-3.25L12.85-3.25 21.05-3.25Q23.8-3.25 25.1-5.35L25.1-5.35Q26.55-4.85 26.55-3.35L26.55-3.35Q26.55 0 21.05 0L21.05 0 12.6 0Q8.7 0 6.9-1.5 5.1-3 5.1-6.55ZM37.8-32.8L37.8-32.8 37.8-3.1Q37.8-1.7 39-1.15L39-1.15Q38 0.45 36.35 0.45L36.35 0.45Q33.6 0.45 33.6-3.05L33.6-3.05 33.6-32.75Q33.6-34.15 32.35-34.7L32.35-34.7Q33.25-36.25 34.95-36.25L34.95-36.25Q37.8-36.25 37.8-32.8ZM50.95-35.85L50.95-35.85 66.8-35.85Q71.75-35.85 71.75-33.35L71.75-33.35Q71.75-31.85 70.3-31.25L70.3-31.25Q68.84-32.55 66.05-32.55L66.05-32.55 52.4-32.55 52.4-20.15 62.95-20.15Q65.7-20.15 66.84-19.73 68-19.3 68-18.07 68-16.85 66.8-16.15L66.8-16.15Q65.45-16.85 62.55-16.85L62.55-16.85 52.4-16.85 52.4-3.1Q52.4-1.65 53.65-1.15L53.65-1.15Q52.6 0.45 51 0.45L51 0.45Q48.2 0.45 48.2-3.05L48.2-3.05 48.2-32.05Q48.2-33.55 46.95-34.05L46.95-34.05Q48.15-35.85 50.95-35.85ZM86.34-3.35L86.34-3.35 96.44-3.35Q99.29-3.35 100.69-5.45L100.69-5.45Q101.34-5.2 101.74-4.58 102.14-3.95 102.14-3.3L102.14-3.3Q102.14 0 96.64 0L96.64 0 86.14 0Q82.29 0 80.44-1.55 78.59-3.1 78.59-6.6L78.59-6.6 78.59-32.05Q78.59-33.55 77.34-34.05L77.34-34.05Q78.54-35.85 81.34-35.85L81.34-35.85 97.14-35.85Q102.14-35.85 102.14-33.25L102.14-33.25Q102.14-31.7 100.69-31.2L100.69-31.2Q99.29-32.45 96.44-32.45L96.44-32.45 82.79-32.45 82.79-20.25 93.34-20.25Q96.09-20.25 97.24-19.8 98.39-19.35 98.39-18.05 98.39-16.75 97.19-16.15L97.19-16.15Q95.84-16.85 92.94-16.85L92.94-16.85 82.79-16.85 82.79-6.75Q82.79-4.95 83.62-4.15 84.44-3.35 86.34-3.35ZM120.94-32.65L120.94-32.65 114.49-32.65 114.49-16.75 120.94-16.75Q125.09-16.75 127.27-18.93 129.44-21.1 129.44-24.68 129.44-28.25 127.27-30.45 125.09-32.65 120.94-32.65ZM113.09-35.85L113.09-35.85 121.14-35.85Q126.94-35.85 130.49-32.83 134.04-29.8 134.04-24.73 134.04-19.65 130.49-16.63 126.94-13.6 121.14-13.6L121.14-13.6 114.54-13.6 114.54-3.1Q114.54-1.65 115.79-1.15L115.79-1.15Q114.74 0.45 113.09 0.45L113.09 0.45Q110.34 0.45 110.34-3.05L110.34-3.05 110.34-32.05Q110.34-33.5 109.09-34.05L109.09-34.05Q110.29-35.85 113.09-35.85ZM141.24-12.85L141.24-12.85 141.24-32.75Q141.24-34.15 139.99-34.7L139.99-34.7Q141.09-36.25 142.59-36.25L142.59-36.25Q145.39-36.25 145.39-32.8L145.39-32.8 145.39-12.35Q145.39-7.8 147.56-5.48 149.74-3.15 154.44-3.15L154.44-3.15Q163.49-3.15 163.49-12.35L163.49-12.35 163.49-32.75Q163.49-34.15 162.19-34.7L162.19-34.7Q163.19-36.25 164.84-36.25L164.84-36.25Q167.59-36.25 167.59-32.8L167.59-32.8 167.59-12.85Q167.59-6.65 164.39-3.13 161.19 0.4 154.49 0.4 147.79 0.4 144.51-3.15 141.24-6.7 141.24-12.85ZM176.49-6.55L176.49-6.55 176.49-32.75Q176.49-34.15 175.24-34.7L175.24-34.7Q176.24-36.25 177.89-36.25L177.89-36.25Q180.69-36.25 180.69-32.8L180.69-32.8 180.69-6.65Q180.69-4.85 181.51-4.05 182.34-3.25 184.24-3.25L184.24-3.25 192.44-3.25Q195.19-3.25 196.49-5.35L196.49-5.35Q197.94-4.85 197.94-3.35L197.94-3.35Q197.94 0 192.44 0L192.44 0 183.99 0Q180.09 0 178.29-1.5 176.49-3 176.49-6.55ZM228.03-29.45L228.03-29.45Q228.03-28.05 227.26-27.23 226.48-26.4 225.51-26.4 224.53-26.4 223.33-26.8L223.33-26.8Q223.53-27.6 223.53-28.35L223.53-28.35Q223.53-30.2 221.61-31.78 219.68-33.35 216.26-33.35 212.83-33.35 210.78-31.9 208.73-30.45 208.73-28.03 208.73-25.6 210.83-23.83 212.93-22.05 215.96-20.75 218.98-19.45 222.01-18.1 225.03-16.75 227.13-14.68 229.23-12.6 229.23-9.95L229.23-9.95Q229.23-5.5 225.36-2.53 221.48 0.45 216.08 0.45 210.68 0.45 207.13-1.98 203.58-4.4 203.58-8.1L203.58-8.1Q203.58-9.7 204.48-10.73 205.38-11.75 206.88-11.75 208.38-11.75 209.23-10.55L209.23-10.55Q208.08-9.5 208.08-7.6 208.08-5.7 210.18-4.2 212.28-2.7 215.96-2.7 219.63-2.7 222.33-4.6 225.03-6.5 225.03-9.25L225.03-9.25Q225.03-11 223.51-12.45 221.98-13.9 219.71-14.85 217.43-15.8 214.78-17 212.13-18.2 209.86-19.4 207.58-20.6 206.06-22.63 204.53-24.65 204.53-27.15L204.53-27.15Q204.53-31.2 208.11-33.83 211.68-36.45 216.63-36.45 221.58-36.45 224.81-34.4 228.03-32.35 228.03-29.45ZM245.58-3.35L245.58-3.35 255.68-3.35Q258.53-3.35 259.93-5.45L259.93-5.45Q260.58-5.2 260.98-4.58 261.38-3.95 261.38-3.3L261.38-3.3Q261.38 0 255.88 0L255.88 0 245.38 0Q241.53 0 239.68-1.55 237.83-3.1 237.83-6.6L237.83-6.6 237.83-32.05Q237.83-33.55 236.58-34.05L236.58-34.05Q237.78-35.85 240.58-35.85L240.58-35.85 256.38-35.85Q261.38-35.85 261.38-33.25L261.38-33.25Q261.38-31.7 259.93-31.2L259.93-31.2Q258.53-32.45 255.68-32.45L255.68-32.45 242.03-32.45 242.03-20.25 252.58-20.25Q255.33-20.25 256.48-19.8 257.63-19.35 257.63-18.05 257.63-16.75 256.43-16.15L256.43-16.15Q255.08-16.85 252.18-16.85L252.18-16.85 242.03-16.85 242.03-6.75Q242.03-4.95 242.86-4.15 243.68-3.35 245.58-3.35Z" opacity="1" transform="matrix(1,0,0,1,0,0)" fill="#ffffff" class="undefined-text-0" data-fill-palette-color="primary" id="text-0"></path></svg></g></svg></g></svg></g></svg></g><g><svg viewBox="0 0 176.28669749429963 148.35524435643566" height="148.35524435643566" width="176.28669749429963"><g><svg xmlns="http://www.w3.org/2000/svg" xmlns:xlink="http://www.w3.org/1999/xlink" version="1.1" baseProfile="tiny" x="0" y="0" viewBox="22.130998611450195 58.78022003173828 454.6869201660156 382.6448059082031" overflow="inherit" xml:space="preserve" height="148.35524435643566" width="176.28669749429963" class="icon-icon-0" data-fill-palette-color="accent" id="icon-0"><path d="M460.458 273.464c-6.722 0-12.494 4.056-15.011 9.853h-22.146l-14.341-25.444c-1.145-2.03-3.287-3.294-5.617-3.312-0.018 0-0.033 0-0.051 0-2.311 0-4.45 1.227-5.617 3.224l-25.887 44.313-28.596-93.39c-0.89-2.904-3.664-4.812-6.7-4.583-3.029 0.224-5.5 2.515-5.953 5.518l-25.758 170.883L276.265 64.701c-0.298-3.298-3.026-5.846-6.337-5.919-3.327-0.077-6.148 2.354-6.591 5.635l-30.573 226.937-23.924-47.45c-1.217-2.415-3.803-3.826-6.491-3.541-2.689 0.284-4.923 2.202-5.61 4.817l-25.473 96.978-28.562-182.312c-0.481-3.072-3.07-5.375-6.177-5.494-3.111-0.123-5.865 1.977-6.581 5.003l-29.316 123.961H53.501c-2.516-5.797-8.289-9.853-15.011-9.853-9.035 0-16.359 7.324-16.359 16.358 0 9.035 7.325 16.359 16.359 16.359 6.722 0 12.495-4.057 15.011-9.854h52.274c3.016 0 5.637-2.073 6.331-5.009l22.873-96.715 28.247 180.303c0.477 3.043 3.022 5.334 6.098 5.49 3.073 0.16 5.839-1.865 6.622-4.844l29.012-110.449 25.641 50.854c1.284 2.546 4.077 3.961 6.887 3.486 2.812-0.473 4.988-2.721 5.369-5.547l25.654-190.412 28.174 312.021c0.296 3.279 2.995 5.82 6.286 5.918 0.065 0.002 0.131 0.003 0.195 0.003 3.207 0 5.95-2.346 6.431-5.536l29.542-195.99 24.559 80.205c0.756 2.47 2.902 4.258 5.469 4.557 2.572 0.3 5.065-0.95 6.369-3.181l27.659-47.346 10.641 18.88c1.152 2.046 3.318 3.312 5.667 3.312h25.947c2.516 5.797 8.289 9.854 15.011 9.854 9.035 0 16.359-7.324 16.359-16.359C476.817 280.788 469.493 273.464 460.458 273.464z" fill="#ffffff" data-fill-palette-color="accent"></path></svg></g></svg></g></svg></g><defs></defs></svg><rect width="395.52" height="100.27173526172577" fill="none" stroke="none" visibility="hidden"></rect></g></svg></g></svg>